<svg id="Layer_1" data-name="Layer 1" xmlns="http://www.w3.org/2000/svg" viewBox="0 0 101 101"><title>Artboard 11</title><path d="M91,74.25l-9.32-55A1.5,1.5,0,0,0,80.18,18H26.5a1.5,1.5,0,0,0,0,3H78.92l2.2,13H50.57C27.77,34,9.21,52.17,9.21,74.5a1.5,1.5,0,0,0,1.5,1.5H89.5A1.5,1.5,0,0,0,91,74.25ZM50.57,37H81.63l5,29.5H13.1A38.23,38.23,0,0,1,50.57,37ZM12.24,73c0-1.18.16-2.35.31-3.5H87.13l.59,3.5Z"/><circle cx="74" cy="58" r="2.5"/><circle cx="64" cy="58" r="2.5"/><circle cx="54" cy="58" r="2.5"/></svg>