<?xml version="1.0" encoding="UTF-8" standalone="no"?> <svg id="Layer_1" data-name="Layer 1" xmlns="http://www.w3.org/2000/svg" viewBox="0 0 64 64"><defs><style>.cls-1{fill:#010101;}</style></defs><path class="cls-1" d="M55.118,46.518v-20c0-.182,0-.364,0-.546a3.352,3.352,0,0,0-2.528-3.219,8.992,8.992,0,0,0-1.975-.093H47.907a10.123,10.123,0,0,0-2.18.12,4.531,4.531,0,0,0-1.933.987h-5.06a2.429,2.429,0,0,0-1.671.54,2.244,2.244,0,0,0-.72,1.754v.775h-.965c-.234,0-.468,0-.7,0-.122,0-.242-.009-.363-.017l-.011,0c-.07-.013-.141-.026-.211-.043a3.489,3.489,0,0,1-.375-.108c-.019-.007-.144-.062-.154-.064-.054-.026-.109-.052-.163-.082-.125-.068-.241-.146-.361-.224l-.016-.011c-.062-.051-.122-.1-.181-.158-.093-.087-.177-.181-.264-.274-.015-.016-.045-.053-.065-.078q-.059-.081-.114-.165c-.077-.121-.139-.247-.208-.372-.012-.023-.012-.02-.019-.033s0,0,0-.01c-.026-.068-.05-.135-.072-.2-.045-.139-.073-.281-.109-.422,0-.012-.008-.037-.012-.058-.007-.071-.014-.143-.018-.214-.015-.317,0-.637,0-.955v-8.59a11.21,11.21,0,0,0-.168-2.052,8.969,8.969,0,0,0-15.8-3.9,9.221,9.221,0,0,0-1.982,5.8q0,3.711,0,7.424a2.153,2.153,0,0,0-.292.057,2.1,2.1,0,0,0-1.452,2c-.01.42,0,.841,0,1.261V49.049c0,1.062-.014,2.127-.006,3.191H9.946c-.789,0-1.585-.03-2.374,0a1.934,1.934,0,0,0-1.88,1.572,6.348,6.348,0,0,0-.039,1.05v2.307a.988.988,0,0,0,.974.974h16.7a.988.988,0,0,0,.974-.974v-2.25c0-.254.008-.509,0-.762a1.956,1.956,0,0,0-1.917-1.917H17.7V24.665a3.024,3.024,0,0,0-.3-1.688,2.063,2.063,0,0,0-1.45-.945q0-3.377,0-6.753c0-.318,0-.636,0-.955a8.261,8.261,0,0,1,.058-.86c.008-.047.027-.177.034-.218q.046-.26.111-.516a8.062,8.062,0,0,1,.241-.789c.014-.038.088-.222.1-.253.062-.142.127-.282.2-.42q.175-.342.382-.666c.077-.119.156-.236.239-.351,0,0,.049-.067.078-.108s.12-.149.133-.165a8.04,8.04,0,0,1,1.182-1.151l.007-.006.032-.022c.047-.032.092-.066.138-.1.116-.081.234-.159.355-.234a7.878,7.878,0,0,1,.785-.432c.051-.024.385-.167.2-.093.133-.053.268-.1.4-.152a8.065,8.065,0,0,1,.837-.238c.143-.032.287-.061.432-.085l.133-.02.137-.017a8.317,8.317,0,0,1,.92-.04q.264,0,.528.024l.209.02.078.006.076.013a8.351,8.351,0,0,1,1,.225,7.039,7.039,0,0,1,4.845,5.134,6.052,6.052,0,0,1,.184,1.608v8.725c0,.319,0,.639,0,.958a4.667,4.667,0,0,0,4.686,4.677c.55,0,1.1,0,1.651,0v2.56a17.529,17.529,0,0,0-2.164,2.492,10.376,10.376,0,0,0-1.669,5.913v13.97c0,.347,0,.693,0,1.04a3.384,3.384,0,0,0,1.419,2.789,5.37,5.37,0,0,0,3.33.6H52.131a.748.748,0,0,0,.094-.02,6.18,6.18,0,0,0,2.893-11.6Zm-40.9-22.531,0,0h0Zm.093-.067s-.009.007-.022.012Zm-.034.016-.011,0,0,0Zm-.016.006c-.045.01-.03,0,.005,0Zm.022-.006h.006l-.008,0Zm-.072.058Zm0,25.932V24.368c0-.107,0-.214,0-.322v-.019L14.214,24l.016-.028.008-.008.009-.009.027-.015.015,0,.022,0c.025,0,.051,0,.077,0h1.271l.029.008.011.007.032.031.01.016.005.018a.1.1,0,0,1,0,.024v.074c0,.148,0,.3,0,.445v24.93c0,.913-.021,1.835-.012,2.754H14.208ZM15.746,24c.01.016.018.03.015.031S15.752,24.018,15.746,24Zm0,.008,0-.012,0,0Zm0-.011,0-.007,0,0Zm0-.017c-.01-.043,0-.029,0,0ZM7.594,54.193c-.008.028-.016.056,0-.006h0Zm.02-.013-.014,0v0C7.7,54.156,7.659,54.169,7.614,54.18Zm-.014,0v-.006c.018-.017.033-.036.051-.05C7.61,54.156,7.6,54.171,7.6,54.18Zm0,0,0,0h0v0h0v0H7.58l.012,0,0,0,0-.014,0,.012Zm-.011.011h0c-.009,0-.023.009-.056.05A.607.607,0,0,1,7.588,54.187Zm14.768,0c0,.031,0,.062,0,.093-.011.332,0,.667,0,1V56.2H7.6v-.978c0-.319.019-.645,0-.964,0-.022,0-.044,0-.066.734.007,1.467,0,2.2,0H22.356ZM33,26.267Zm1.3.546c-.049-.006-.151-.029,0,0Zm4.111-1.094a.33.33,0,0,1,.047-.008h3.386l-.167.173L38.29,29.365V26.024c0-.035,0-.07,0-.106a.12.12,0,0,0,0-.019c0-.019,0-.023,0-.035.012-.038.049-.1,0-.023l0,.007h0c.017-.028.04-.066.049-.079.03-.024.072-.048.007-.012h0l.038-.021Zm-.073.042Zm-.059.1h0C38.275,25.869,38.275,25.87,38.279,25.862Zm-.548,6.87,5.4-5.55,1.43-1.47.038-.039.237-.244a2.707,2.707,0,0,1,1.465-.787,1.924,1.924,0,0,1,.233-.024V30c0,.46.021.928-.014,1.387,0,.059-.01.118-.017.178.024-.224-.013.062-.018.09-.028.143-.062.285-.1.424-.035.119-.077.236-.12.352-.016.035-.052.123-.059.137-.038.077-.077.153-.118.227-.083.15-.178.288-.271.432-.006.009-.019.028-.032.045-.042.052-.085.105-.13.155-.093.106-.191.208-.293.3-.061.058-.124.115-.188.17l-.1.074a5.793,5.793,0,0,1-.775.457l-.025.011c-.073.028-.147.056-.221.081a4.866,4.866,0,0,1-.5.136c-.079.017-.158.031-.237.044l-.028,0c-.15.011-.3.02-.451.021h-.09q-2.1,0-4.2,0H35.918v0A18.375,18.375,0,0,1,37.731,32.732Zm6.528,1.719c-.039.016-.068.026,0,0ZM36.113,56.2h-.268c-.068,0-.136,0-.2-.007a.256.256,0,0,0-.036,0s0,0-.008-.01a1.28,1.28,0,0,0-.209-.054c-.024-.007-.14-.06-.149-.061-.053-.027-.105-.054-.156-.085-.021-.013-.138-.1-.133-.1-.022-.019-.044-.038-.065-.058-.043-.041-.082-.086-.122-.13-.007-.015-.08-.108-.092-.127-.029-.047-.054-.1-.083-.146-.012-.019-.019-.028-.027-.039a.279.279,0,0,0-.01-.039c-.016-.054-.035-.108-.05-.163s-.027-.109-.038-.164v-.006c0-.1-.007-.207-.007-.311V41.3c0-.9-.044-1.809.03-2.7a5.745,5.745,0,0,1,.134-.878,8.811,8.811,0,0,1,.3-1.04h7.71a6.1,6.1,0,0,0,2.8-.635,5.7,5.7,0,0,0,2.745-3.195,6.738,6.738,0,0,0,.3-2.279V24.6h3.129c.061,0,.121,0,.182,0,.036,0,.071,0,.107,0s.149.023.163.023q.109.027.219.057a.774.774,0,0,1,.083.034c.061.031.122.062.181.1.026.016.05.033.075.05,0,.005.107.089.123.105.051.048.1.1.144.152.01.011.006,0,.011.008s0,.009.014.027c.042.071.084.146.129.216a.123.123,0,0,0,.026.035.3.3,0,0,0,.01.043c.024.082.047.165.071.247l.012.039q.01.114.012.228c0,.016,0,.033,0,.049,0,.746,0,1.493,0,2.24v17.56c-.06-.011-.12-.013-.181-.021-.163-.023-.327-.031-.492-.04s-.357-.016-.536-.01a6.112,6.112,0,0,0-.689.055c-.052.008-.1.018-.155.027a5.969,5.969,0,0,0-2.532,1.025,6.641,6.641,0,0,0-.665.559c-.092.084-.177.175-.264.266s-.165.179-.244.272-.168.173-.242.27a5.964,5.964,0,0,0-.953,1.91c-.03.1-.057.194-.083.292-.031.128-.063.255-.087.385a6.533,6.533,0,0,0-.115.869,6.124,6.124,0,0,0,.147,1.571c.011.053.021.1.033.157a6.534,6.534,0,0,0,.224.734c.035.094.081.184.121.276.062.142.127.283.2.42.032.061.054.126.088.186s.063.086.091.132a6.02,6.02,0,0,0,.421.619c.033.042.069.079.1.12.085.1.17.206.262.3H36.113Zm20.251-3.734c0-.023,0-.02,0,0Zm.012-.138c0,.057-.01.114-.016.171l-.005.042a5.805,5.805,0,0,1-.189.77c-.019.059-.039.117-.06.175l-.038.1-.041.092c-.026.055-.053.11-.081.164a5.9,5.9,0,0,1-.4.658l-.041.055c-.028.035-.057.07-.086.1-.078.091-.16.18-.244.266s-.172.168-.262.248c-.027.024-.155.126-.184.152a4.744,4.744,0,0,1-1.21.648,4.076,4.076,0,0,1-1.462.225c-.135,0-.269-.01-.4-.02l-.086-.008c-.011,0-.121-.021-.19-.033l-.063-.012a5.058,5.058,0,0,1-.683-.193l-.038-.013-.03-.011-.1-.043a5.639,5.639,0,0,1-.673-.38c-.079-.051-.162-.095-.239-.15l-.026-.018-.113-.094-.006-.005c-.112-.1-.217-.2-.32-.3-.027-.028-.055-.056-.081-.084-.081-.087-.159-.176-.233-.267a4.839,4.839,0,0,1-.289-.436c-.048-.081-.1-.161-.139-.244-.019-.036-.039-.071-.057-.107s-.041-.084-.061-.127c0-.009-.03-.071-.048-.115s-.017-.061-.028-.091a6.033,6.033,0,0,1-.23-.848l0-.018-.006-.033c-.006-.05-.01-.1-.015-.152,0-.034-.006-.068-.008-.1a5.4,5.4,0,0,1,0-.685c0-.034.005-.068.008-.1.011-.1.025-.207.01-.124h0c.012-.069.026-.137.039-.205s.039-.164.06-.245c.034-.137.074-.273.12-.406.028-.085.056-.17.089-.253.018-.035.061-.129.077-.16l.013-.026c.036-.071.073-.141.113-.211.055-.1.119-.191.181-.284s.1-.164.157-.242a.236.236,0,0,0,.018-.02c.056-.065.11-.131.168-.194a5.218,5.218,0,0,1,.394-.393c.062-.055.125-.108.189-.16l.089-.066c.155-.107.313-.209.477-.3.072-.04.143-.079.216-.115.02-.01.154-.07.2-.093l.121-.044a5.18,5.18,0,0,1,.584-.167c.077-.018.153-.037.23-.054.06-.009.119-.019.126-.022l.124-.011.143-.011a4.851,4.851,0,0,1,.852.022l.081.012a3.9,3.9,0,0,1,.543.131c.115.033.229.072.342.113a4.343,4.343,0,0,1,.616.285c.118.068.233.141.345.218l.1.073c.012.01.081.063.1.077a5.255,5.255,0,0,1,.609.6c.029.033.057.068.084.1.008.01.047.062.069.094q.119.167.222.342c.07.117.135.238.2.36.027.055.053.11.078.166l.009.016c0,.01.005.018.016.048a5.932,5.932,0,0,1,.239.848c.009.046.017.093.026.139l.009.051c0,.016,0,.035,0,.067.012.161.02.32.022.482C56.389,52.066,56.385,52.2,56.376,52.323Z"/><polygon class="cls-1" points="7.595 54.182 7.592 54.182 7.591 54.184 7.595 54.183 7.595 54.183 7.595 54.183 7.596 54.183 7.596 54.183 7.597 54.183 7.597 54.181 7.596 54.181 7.597 54.177 7.596 54.179 7.595 54.182"/></svg>